<?xml version="1.0" encoding="UTF-8"?>
<svg version="1.1" xmlns="http://www.w3.org/2000/svg" width="1252" height="400">
<path d="M0 0 C1.32602234 0.00273422 1.32602234 0.00273422 2.67883301 0.00552368 C15.45077651 0.04988877 27.81816966 0.4468279 40.3125 3.3125 C41.11381348 3.48410645 41.91512695 3.65571289 42.74072266 3.83251953 C80.08652304 11.90163531 112.78224982 29.94740805 140.3125 56.3125 C140.81136719 56.78413574 141.31023437 57.25577148 141.82421875 57.74169922 C179.10335952 93.11615381 199.40596766 143.31275986 201.3125 194.3125 C201.374375 195.68921875 201.374375 195.68921875 201.4375 197.09375 C202.47324144 242.14850273 187.26662489 288.04085454 159.3125 323.3125 C158.88388672 323.85680664 158.45527344 324.40111328 158.01367188 324.96191406 C137.77746206 350.40392747 112.68387973 369.59167439 83.3125 383.3125 C82.18585938 383.84617187 81.05921875 384.37984375 79.8984375 384.9296875 C58.72151767 394.50145688 34.66677332 400.38170477 11.38671875 400.515625 C10.15492889 400.52621445 10.15492889 400.52621445 8.89825439 400.53701782 C-24.86463865 400.76150832 -24.86463865 400.76150832 -39.6875 397.3125 C-40.55407227 397.12445801 -41.42064453 396.93641602 -42.31347656 396.74267578 C-93.38833626 385.4990508 -139.09398054 354.79008551 -167.65625 310.80078125 C-188.90964212 277.22590272 -200.17034995 240.43555005 -200 200.625 C-199.99817719 199.74098511 -199.99635437 198.85697021 -199.99447632 197.94616699 C-199.95009844 185.17054115 -199.5406852 172.81203478 -196.6875 160.3125 C-196.52121094 159.52182129 -196.35492188 158.73114258 -196.18359375 157.91650391 C-192.12409226 138.74287698 -185.12851715 120.47554398 -175.6875 103.3125 C-175.17582275 102.38195801 -175.17582275 102.38195801 -174.65380859 101.43261719 C-166.20079371 86.29042099 -155.71743423 72.7684234 -143.6875 60.3125 C-142.76789807 59.3297368 -141.84863063 58.3466605 -140.9296875 57.36328125 C-104.89598826 19.4229385 -51.60786439 -0.22083084 0 0 Z M0.44140625 67.36328125 C-3.87786608 73.1948168 -5.94915642 79.39008866 -5.5625 86.6640625 C-3.36736177 99.97208805 9.73889408 108.35758621 19.609375 116.1484375 C24.42698173 120.00530762 29.11772657 124.01012611 33.80224609 128.02685547 C35.15503521 129.17845384 36.52379832 130.31122554 37.89453125 131.44140625 C46.79714323 138.94871959 52.9345427 147.79818045 55.3125 159.3125 C56.31193679 173.49681438 53.12837947 183.17131064 44.0625 194 C34.2127678 202.28272935 24.3344703 205.42239491 11.52929688 204.56396484 C3.3372066 203.63468588 -4.71278129 201.33801123 -12.6875 199.3125 C-14.98636922 198.73421445 -17.28533962 198.1563373 -19.58447266 197.57910156 C-21.48437426 197.09810231 -23.38100845 196.60424753 -25.27734375 196.109375 C-40.00651619 192.66750653 -54.74160547 193.47461963 -68.1875 200.7578125 C-82.23761009 209.49522471 -91.32743627 221.53169807 -95.265625 237.68359375 C-97.73858056 253.09377051 -94.31201889 267.39193317 -85.6875 280.3125 C-74.08194749 294.42999256 -59.50326222 299.98618837 -41.72363281 301.80126953 C-30.07682192 302.77529108 -18.35950043 302.43099747 -6.6875 302.3125 C-6.6875 311.2225 -6.6875 320.1325 -6.6875 329.3125 C-9.6575 329.9725 -12.6275 330.6325 -15.6875 331.3125 C-17.48416878 331.84129069 -19.27242316 332.40071308 -21.04516602 333.00488281 C-21.99388077 333.32571838 -22.94259552 333.64655396 -23.9200592 333.97711182 C-24.91710373 334.31982117 -25.91414825 334.66253052 -26.94140625 335.015625 C-28.53008766 335.55603424 -28.53008766 335.55603424 -30.15086365 336.10736084 C-32.38463126 336.86830528 -34.61761605 337.63155115 -36.84985352 338.39697266 C-40.21380927 339.55009427 -43.58028818 340.69557921 -46.94726562 341.83984375 C-58.60056502 345.81162681 -70.19998679 349.88238622 -81.6875 354.3125 C-80.61348892 357.22767292 -79.90939824 359.09060176 -77.6875 361.3125 C-74.62275841 360.89562356 -74.62275841 360.89562356 -71.03466797 359.88720703 C-70.01010498 359.62429871 -70.01010498 359.62429871 -68.96484375 359.3560791 C-66.70007376 358.77195319 -64.44005705 358.17122132 -62.1796875 357.5703125 C-60.61339509 357.16286401 -59.04683227 356.75645371 -57.48001099 356.3510437 C-53.35085182 355.27964617 -49.22552899 354.19413639 -45.10083008 353.10571289 C-40.89365198 351.9981774 -36.68302188 350.9039364 -32.47265625 349.80859375 C-24.20748755 347.65627479 -15.9463219 345.48904498 -7.6875 343.3125 C-6.55701398 347.80225944 -5.44645331 352.26645443 -4.5625 356.8125 C-4.39492187 357.6684375 -4.22734375 358.524375 -4.0546875 359.40625 C-3.93351562 360.0353125 -3.81234375 360.664375 -3.6875 361.3125 C-1.0475 361.3125 1.5925 361.3125 4.3125 361.3125 C4.51746094 360.09691406 4.72242188 358.88132812 4.93359375 357.62890625 C5.20551961 356.04423486 5.47766643 354.45960137 5.75 352.875 C5.95206055 351.67133789 5.95206055 351.67133789 6.15820312 350.44335938 C7.19921875 344.42578125 7.19921875 344.42578125 8.3125 343.3125 C10.35835892 343.72694889 12.38668473 344.22791427 14.40527344 344.75952148 C15.04112366 344.92518616 15.67697388 345.09085083 16.33209229 345.26153564 C17.71818681 345.62346148 19.1035729 345.98810851 20.48833466 346.35510063 C22.68109987 346.93603773 24.87566085 347.50965528 27.07086182 348.08131409 C32.52689426 349.50375427 37.97961988 350.9387074 43.43237305 352.37365723 C48.0311733 353.58342956 52.63121346 354.78825565 57.23303986 355.98646736 C59.39299279 356.5510444 61.55094582 357.12285748 63.70892334 357.69493103 C65.03990412 358.04234331 66.37097455 358.38941239 67.70214844 358.73608398 C69.43969391 359.19361305 69.43969391 359.19361305 71.21234131 359.66038513 C74.0296079 360.25299397 76.44788348 360.44774633 79.3125 360.3125 C80.3025 358.3325 81.2925 356.3525 82.3125 354.3125 C64.22345717 347.92685181 46.12872069 341.55611479 27.99526978 335.29748535 C26.45904899 334.76662062 24.92338077 334.23415413 23.38827515 333.70007324 C21.24734933 332.95571268 19.10446719 332.21729155 16.9609375 331.48046875 C15.13828369 330.85047974 15.13828369 330.85047974 13.27880859 330.20776367 C10.35023686 329.16803109 10.35023686 329.16803109 7.3125 329.3125 C7.3125 320.0725 7.3125 310.8325 7.3125 301.3125 C10.46010889 300.26329704 13.61327659 299.2256015 16.80078125 298.3046875 C51.09760128 288.28539176 76.12848793 266.65488605 93.31542969 235.49414062 C119.447345 187.2313688 123.21180419 126.8758585 109.3125 74.3125 C104.52151468 72.87401928 99.80395742 71.77076497 94.87109375 70.89208984 C94.16264816 70.76500137 93.45420258 70.6379129 92.72428894 70.50697327 C90.40026217 70.09152087 88.0752624 69.6819142 85.75 69.2734375 C84.94769958 69.13184834 84.14539917 68.99025917 83.31878662 68.84437943 C79.06824398 68.09445743 74.81693606 67.34906509 70.56494141 66.60742188 C66.21393578 65.84761653 61.86579505 65.07257414 57.5181427 64.29384422 C54.13917388 63.69154825 50.75825393 63.10080762 47.3767395 62.51298904 C45.77513237 62.23258657 44.17424636 61.94802707 42.57418823 61.65891647 C19.78652266 57.06650109 19.78652266 57.06650109 0.44140625 67.36328125 Z " fill="#00B6C3" transform="translate(199.6875,-0.3125)"/>
<path d="M0 0 C1.67510859 0.02011753 3.35024081 0.03835891 5.02539062 0.0546875 C9.08050804 0.09477764 13.13225741 0.17312336 17.1875 0.25 C17.1875 8.17 17.1875 16.09 17.1875 24.25 C6.1875 24.5 6.1875 24.5 2.76953125 24.54785156 C-3.46588956 24.75672497 -8.69269748 25.45823355 -13.8125 29.25 C-19.97089819 35.84127846 -18.3320977 46.08316092 -18.8125 54.25 C2.3075 54.25 23.4275 54.25 45.1875 54.25 C47.559375 59.73625 49.93125 65.2225 52.375 70.875 C58.59613035 85.26407042 58.59613035 85.26407042 64.828125 99.6484375 C65.10814362 100.29409668 65.38816223 100.93975586 65.67666626 101.60498047 C66.22521369 102.86975359 66.77376703 104.13452416 67.32232666 105.39929199 C72.64375863 117.6688122 77.93404832 129.95122166 83.1875 142.25 C90.72220686 124.44769601 98.0989118 106.59590968 105.2421875 88.6328125 C109.81496423 77.14106574 114.50932065 65.6992284 119.1875 54.25 C130.4075 54.25 141.6275 54.25 153.1875 54.25 C152.38959445 58.23952777 151.54287885 61.06719646 149.94921875 64.71875 C149.4694458 65.82323486 148.98967285 66.92771973 148.49536133 68.06567383 C147.9554261 69.29386399 147.41529831 70.52196952 146.875 71.75 C146.3014183 73.06328247 145.72810342 74.3766815 145.1550293 75.69018555 C139.14603369 89.43580464 133.03212771 103.13562317 126.92675781 116.83862305 C121.49939842 129.02337247 116.11674888 141.22676659 110.76977539 153.44699097 C84.15474406 214.25529924 84.15474406 214.25529924 71.1875 226.25 C70.7234375 226.73082031 70.259375 227.21164062 69.78125 227.70703125 C62.14708874 235.09794717 50.91186569 238.40360623 40.44921875 238.34765625 C39.48717529 238.34515869 38.52513184 238.34266113 37.53393555 238.34008789 C35.72276245 238.32643188 35.72276245 238.32643188 33.875 238.3125 C30.018125 238.291875 26.16125 238.27125 22.1875 238.25 C22.1875 229.01 22.1875 219.77 22.1875 210.25 C32.6875 209.5 32.6875 209.5 35.94726562 209.29394531 C43.70634445 208.66119387 50.52959588 206.89461269 55.8125 200.8125 C61.19699138 194.2149508 65.86501159 185.92463824 65.1875 177.25 C63.97843943 173.87450943 63.97843943 173.87450943 62.21484375 170.38671875 C61.90058441 169.73054565 61.58632507 169.07437256 61.26254272 168.39831543 C60.58258562 166.98142563 59.8974436 165.56701469 59.20767212 164.15487671 C57.72866798 161.12578853 56.27582205 158.08441078 54.82176208 155.04328918 C54.06641675 153.4636052 53.30986161 151.88449917 52.55213928 150.30595398 C48.76119611 142.39793611 45.11443768 134.42741013 41.5 126.4375 C41.19551941 125.76561646 40.89103882 125.09373291 40.57733154 124.40148926 C34.06865298 110.03807502 27.62554429 95.64517769 21.1875 81.25 C1.8825 80.755 1.8825 80.755 -17.8125 80.25 C-17.8125 115.89 -17.8125 151.53 -17.8125 188.25 C-28.3725 188.25 -38.9325 188.25 -49.8125 188.25 C-49.8125 152.61 -49.8125 116.97 -49.8125 80.25 C-57.7325 80.25 -65.6525 80.25 -73.8125 80.25 C-73.8125 71.67 -73.8125 63.09 -73.8125 54.25 C-65.8925 54.25 -57.9725 54.25 -49.8125 54.25 C-49.874375 50.846875 -49.93625 47.44375 -50 43.9375 C-50.06685438 30.66642093 -48.38263695 19.23305351 -38.87890625 9.2109375 C-27.66173242 -0.46258855 -13.95772136 -0.29475415 0 0 Z " fill="#000000" transform="translate(1098.8125,92.75)"/>
<path d="M0 0 C10.56 0 21.12 0 32 0 C32.01458252 2.4013623 32.02916504 4.80272461 32.04418945 7.27685547 C32.09468387 15.2397456 32.16130467 23.20244323 32.23571491 31.16514397 C32.28030958 35.98963605 32.31958937 40.8140458 32.34643555 45.63867188 C32.37257776 50.30078195 32.41305632 54.96257335 32.46318626 59.62448502 C32.47978148 61.3968927 32.49134125 63.16935541 32.49761391 64.94182968 C32.54835697 77.97051424 32.97920794 89.69634135 42 100 C48.20160253 105.26430028 55.69623825 107.54036073 63.8046875 107.23828125 C71.91918139 106.35752658 78.1330219 104.2038873 84.0546875 98.44140625 C91.10522453 89.5928407 92.11320955 79.028536 92.20532227 68.11523438 C92.21522186 67.3727948 92.22512146 66.63035522 92.23532104 65.86541748 C92.26659673 63.44155938 92.29155734 61.01768176 92.31640625 58.59375 C92.33700519 56.9012403 92.35800238 55.2087354 92.37937927 53.51623535 C92.43429659 49.08418697 92.48383831 44.65209453 92.53222656 40.2199707 C92.58266461 35.68827441 92.63823369 31.15664127 92.69335938 26.625 C92.80056926 17.7500522 92.90162031 8.87505008 93 0 C103.56 0 114.12 0 125 0 C125.06807694 10.9712103 125.12298873 21.94227775 125.15543652 32.91365242 C125.1710185 38.00941002 125.19211855 43.10501424 125.22631836 48.20068359 C125.25918041 53.12849283 125.276909 58.05615555 125.28463173 62.98406601 C125.29012747 64.85371071 125.30085762 66.7233484 125.31719017 68.59292984 C125.4849906 88.61762153 123.03739766 106.71126671 108.453125 121.81640625 C104.30980735 125.50448677 99.85490296 128.34153191 95 131 C94.29488281 131.39960938 93.58976563 131.79921875 92.86328125 132.2109375 C75.66638764 140.92403026 54.07371875 139.41780631 36.12109375 134.15625 C21.45552452 128.83166148 10.72026448 117.81390467 4 104 C-0.64199711 92.40197828 -0.52715311 81.23395548 -0.390625 68.9453125 C-0.3831476 66.94750541 -0.37746177 64.94969089 -0.37347412 62.95187378 C-0.35833567 57.74040824 -0.319158 52.52940171 -0.2746582 47.31811523 C-0.23344857 41.9816712 -0.21540868 36.64515167 -0.1953125 31.30859375 C-0.15265015 20.87216361 -0.08239933 10.43619211 0 0 Z " fill="#000000" transform="translate(592,147)"/>
<path d="M0 0 C11.46533209 9.78282496 17.66820852 21.99247263 20.01953125 36.828125 C20.10770622 39.71861047 20.14596528 42.58396874 20.13305664 45.47387695 C20.13320267 46.3329213 20.13334869 47.19196564 20.13349915 48.07704163 C20.13280437 50.90685582 20.12503236 53.7366036 20.1171875 56.56640625 C20.11532177 58.53224146 20.1138986 60.49807713 20.11289978 62.46391296 C20.10908678 67.63092336 20.09926687 72.79790552 20.0881958 77.96490479 C20.07795552 83.24027118 20.07339655 88.51564215 20.06835938 93.79101562 C20.05764351 104.13673313 20.04005656 114.4824223 20.01953125 124.828125 C9.45953125 124.828125 -1.10046875 124.828125 -11.98046875 124.828125 C-11.99505127 122.52811523 -12.00963379 120.22810547 -12.0246582 117.85839844 C-12.07522549 110.21882044 -12.1418582 102.57944156 -12.21618366 94.94005966 C-12.26071734 90.31292243 -12.30000988 85.6858698 -12.3269043 81.05859375 C-12.35310824 76.5845007 -12.39362842 72.11073627 -12.44365501 67.63684845 C-12.46020908 65.93866343 -12.47179411 64.24042172 -12.47808266 62.54216766 C-12.52895085 50.0560428 -13.07184955 38.65162841 -19.98046875 27.828125 C-20.31046875 26.838125 -20.64046875 25.848125 -20.98046875 24.828125 C-22.84269092 23.71710951 -22.84269092 23.71710951 -24.98046875 22.828125 C-25.53605469 22.48652344 -26.09164062 22.14492187 -26.6640625 21.79296875 C-33.90884346 17.54936654 -42.53603056 16.99857508 -50.73046875 18.390625 C-57.27675503 20.20770079 -62.99397942 23.88524984 -66.85546875 29.515625 C-72.55627665 40.36639906 -72.44927848 51.46887361 -72.4921875 63.40234375 C-72.50906223 65.18025429 -72.52721616 66.9581531 -72.54658508 68.73603821 C-72.59378817 73.38012017 -72.62378859 78.02415458 -72.65002441 82.668396 C-72.67998097 87.4216043 -72.72645887 92.17464916 -72.77148438 96.92773438 C-72.85717919 106.22779718 -72.92314367 115.52784402 -72.98046875 124.828125 C-83.54046875 124.828125 -94.10046875 124.828125 -104.98046875 124.828125 C-105.04846521 113.43122168 -105.10341172 102.03445489 -105.13590527 90.63739395 C-105.1515069 85.34428572 -105.17264386 80.05132446 -105.20678711 74.75830078 C-105.23957778 69.6424695 -105.25736306 64.52677886 -105.26510048 59.41085052 C-105.2706088 57.46698546 -105.28136444 55.52312739 -105.29765892 53.57932281 C-105.45100876 34.51353446 -103.04550102 18.34923829 -89.25390625 4.0078125 C-65.51628523 -18.75093755 -26.03884844 -18.9745737 0 0 Z " fill="#000000" transform="translate(931.98046875,156.171875)"/>
<path d="M0 0 C1.07204178 0.0028299 2.14408356 0.00565979 3.24861145 0.00857544 C6.63070435 0.01965875 10.01252009 0.04474055 13.39453125 0.0703125 C15.70507427 0.08035763 18.01562149 0.08948078 20.32617188 0.09765625 C25.95331444 0.11784693 31.57986719 0.157018 37.20703125 0.1953125 C37.20703125 10.0953125 37.20703125 19.9953125 37.20703125 30.1953125 C34.06300781 30.23269531 30.91898438 30.27007812 27.6796875 30.30859375 C24.61150427 30.35489583 21.54343885 30.40609791 18.4753418 30.45776367 C16.35432178 30.49087685 14.23321652 30.5189505 12.11206055 30.54174805 C9.05090241 30.57554519 5.99051587 30.62787299 2.9296875 30.68359375 C1.52288475 30.69317863 1.52288475 30.69317863 0.08766174 30.70295715 C-9.07838707 30.90449385 -16.32643246 32.86980607 -23.0703125 39.23828125 C-32.09817998 49.49443002 -31.14250546 63.18604661 -31.79296875 76.1953125 C-11.33296875 76.1953125 9.12703125 76.1953125 30.20703125 76.1953125 C30.20703125 86.0953125 30.20703125 95.9953125 30.20703125 106.1953125 C9.74703125 106.1953125 -10.71296875 106.1953125 -31.79296875 106.1953125 C-31.79296875 128.9653125 -31.79296875 151.7353125 -31.79296875 175.1953125 C-42.68296875 175.1953125 -53.57296875 175.1953125 -64.79296875 175.1953125 C-64.83830565 160.34712788 -64.87506774 145.49897928 -64.89659309 130.65074158 C-64.90685816 123.75476586 -64.92082595 116.85883654 -64.94384766 109.96289062 C-64.96608916 103.29740773 -64.97756612 96.63198278 -64.98272324 89.96646118 C-64.98639449 87.4342066 -64.99356292 84.90195439 -65.00442886 82.36972046 C-65.19957862 34.96982675 -65.19957862 34.96982675 -47.82421875 16.0703125 C-34.50962219 3.77991567 -17.59052974 -0.17888881 0 0 Z " fill="#000000" transform="translate(538.79296875,105.8046875)"/>
<path d="M0 0 C0 9.9 0 19.8 0 30 C-3.09375 30.103125 -6.1875 30.20625 -9.375 30.3125 C-19.90606971 30.78039685 -29.93308777 31.57533373 -37.58984375 39.68359375 C-46.14903444 50.0843707 -45.46711997 62.15137378 -45.51171875 74.9140625 C-45.52858829 76.7382425 -45.54674155 78.56241105 -45.56611633 80.38656616 C-45.61337558 85.15725115 -45.64334005 89.92788964 -45.66955566 94.69873047 C-45.69948342 99.57919492 -45.74597144 104.45949955 -45.79101562 109.33984375 C-45.87677458 118.89316339 -45.94270792 128.44646719 -46 138 C-56.89 138 -67.78 138 -79 138 C-79.06816414 127.45448273 -79.12303804 116.90911521 -79.15543652 106.36342621 C-79.17099732 101.46501893 -79.19205721 96.56677204 -79.22631836 91.66845703 C-79.2592578 86.9286698 -79.27692478 82.18903545 -79.28463173 77.44914246 C-79.2901139 75.65371804 -79.3008162 73.85830062 -79.31719017 72.0629425 C-79.50441548 50.6548509 -76.45029263 32.64756432 -62 16 C-43.06973746 0.45109237 -23.59271443 -0.26214127 0 0 Z " fill="#000000" transform="translate(817,143)"/>
<path d="M0 0 C10.89 0 21.78 0 33 0 C33 44.22 33 88.44 33 134 C22.11 134 11.22 134 0 134 C0 89.78 0 45.56 0 0 Z " fill="#000000" transform="translate(975,147)"/>
<path d="M0 0 C10.56 0 21.12 0 32 0 C32 9.57 32 19.14 32 29 C21.44 29 10.88 29 0 29 C0 19.43 0 9.86 0 0 Z " fill="#000000" transform="translate(976,94)"/>
</svg>
